<?xml version="1.0" encoding="utf-8"?>
<!DOCTYPE svg PUBLIC "-//W3C//DTD SVG 20010904//EN" "http://www.w3.org/TR/2001/REC-SVG-20010904/DTD/svg10.dtd">
<svg xmlns="http://www.w3.org/2000/svg" xml:space="preserve" xmlns:xlink="http://www.w3.org/1999/xlink" width="464" height="464" viewBox="0 0 464 464">
<desc></desc>
<rect width="464" height="464" fill="#ffff00" cx="0" cy="0" />
<defs>
<rect id="p" width="16" height="16" />
<circle id="circle" r="8" stroke-width="0" fill="f9f9f9" />
<rect id="hor" width="16" height="4" />
<rect id="ver" width="4" height="16" />
<polygon id="3d1" points="0,0 16,0 0,16" stroke-width="0" fill="f9f9f9" />
<polygon id="3d2" points="0,16 16,0 16,16" stroke-width="0" fill="#fcfcfc" />
</defs>
<g fill="#f9f9f9">
<use x="32" y="32" xlink:href="#3d1" />
<use x="32" y="32" xlink:href="#3d2" />
<use x="48" y="32" xlink:href="#3d1" />
<use x="48" y="32" xlink:href="#3d2" />
<use x="64" y="32" xlink:href="#3d1" />
<use x="64" y="32" xlink:href="#3d2" />
<use x="80" y="32" xlink:href="#3d1" />
<use x="80" y="32" xlink:href="#3d2" />
<use x="96" y="32" xlink:href="#3d1" />
<use x="96" y="32" xlink:href="#3d2" />
<use x="112" y="32" xlink:href="#3d1" />
<use x="112" y="32" xlink:href="#3d2" />
<use x="128" y="32" xlink:href="#3d1" />
<use x="128" y="32" xlink:href="#3d2" />
<use x="192" y="32" xlink:href="#3d1" />
<use x="192" y="32" xlink:href="#3d2" />
<use x="224" y="32" xlink:href="#3d1" />
<use x="224" y="32" xlink:href="#3d2" />
<use x="288" y="32" xlink:href="#3d1" />
<use x="288" y="32" xlink:href="#3d2" />
<use x="320" y="32" xlink:href="#3d1" />
<use x="320" y="32" xlink:href="#3d2" />
<use x="336" y="32" xlink:href="#3d1" />
<use x="336" y="32" xlink:href="#3d2" />
<use x="352" y="32" xlink:href="#3d1" />
<use x="352" y="32" xlink:href="#3d2" />
<use x="368" y="32" xlink:href="#3d1" />
<use x="368" y="32" xlink:href="#3d2" />
<use x="384" y="32" xlink:href="#3d1" />
<use x="384" y="32" xlink:href="#3d2" />
<use x="400" y="32" xlink:href="#3d1" />
<use x="400" y="32" xlink:href="#3d2" />
<use x="416" y="32" xlink:href="#3d1" />
<use x="416" y="32" xlink:href="#3d2" />
<use x="32" y="48" xlink:href="#3d1" />
<use x="32" y="48" xlink:href="#3d2" />
<use x="128" y="48" xlink:href="#3d1" />
<use x="128" y="48" xlink:href="#3d2" />
<use x="160" y="48" xlink:href="#3d1" />
<use x="160" y="48" xlink:href="#3d2" />
<use x="192" y="48" xlink:href="#3d1" />
<use x="192" y="48" xlink:href="#3d2" />
<use x="272" y="48" xlink:href="#3d1" />
<use x="272" y="48" xlink:href="#3d2" />
<use x="288" y="48" xlink:href="#3d1" />
<use x="288" y="48" xlink:href="#3d2" />
<use x="320" y="48" xlink:href="#3d1" />
<use x="320" y="48" xlink:href="#3d2" />
<use x="416" y="48" xlink:href="#3d1" />
<use x="416" y="48" xlink:href="#3d2" />
<use x="32" y="64" xlink:href="#3d1" />
<use x="32" y="64" xlink:href="#3d2" />
<use x="64" y="64" xlink:href="#3d1" />
<use x="64" y="64" xlink:href="#3d2" />
<use x="80" y="64" xlink:href="#3d1" />
<use x="80" y="64" xlink:href="#3d2" />
<use x="96" y="64" xlink:href="#3d1" />
<use x="96" y="64" xlink:href="#3d2" />
<use x="128" y="64" xlink:href="#3d1" />
<use x="128" y="64" xlink:href="#3d2" />
<use x="224" y="64" xlink:href="#3d1" />
<use x="224" y="64" xlink:href="#3d2" />
<use x="256" y="64" xlink:href="#3d1" />
<use x="256" y="64" xlink:href="#3d2" />
<use x="320" y="64" xlink:href="#3d1" />
<use x="320" y="64" xlink:href="#3d2" />
<use x="352" y="64" xlink:href="#3d1" />
<use x="352" y="64" xlink:href="#3d2" />
<use x="368" y="64" xlink:href="#3d1" />
<use x="368" y="64" xlink:href="#3d2" />
<use x="384" y="64" xlink:href="#3d1" />
<use x="384" y="64" xlink:href="#3d2" />
<use x="416" y="64" xlink:href="#3d1" />
<use x="416" y="64" xlink:href="#3d2" />
<use x="32" y="80" xlink:href="#3d1" />
<use x="32" y="80" xlink:href="#3d2" />
<use x="64" y="80" xlink:href="#3d1" />
<use x="64" y="80" xlink:href="#3d2" />
<use x="80" y="80" xlink:href="#3d1" />
<use x="80" y="80" xlink:href="#3d2" />
<use x="96" y="80" xlink:href="#3d1" />
<use x="96" y="80" xlink:href="#3d2" />
<use x="128" y="80" xlink:href="#3d1" />
<use x="128" y="80" xlink:href="#3d2" />
<use x="160" y="80" xlink:href="#3d1" />
<use x="160" y="80" xlink:href="#3d2" />
<use x="176" y="80" xlink:href="#3d1" />
<use x="176" y="80" xlink:href="#3d2" />
<use x="192" y="80" xlink:href="#3d1" />
<use x="192" y="80" xlink:href="#3d2" />
<use x="224" y="80" xlink:href="#3d1" />
<use x="224" y="80" xlink:href="#3d2" />
<use x="240" y="80" xlink:href="#3d1" />
<use x="240" y="80" xlink:href="#3d2" />
<use x="256" y="80" xlink:href="#3d1" />
<use x="256" y="80" xlink:href="#3d2" />
<use x="272" y="80" xlink:href="#3d1" />
<use x="272" y="80" xlink:href="#3d2" />
<use x="288" y="80" xlink:href="#3d1" />
<use x="288" y="80" xlink:href="#3d2" />
<use x="320" y="80" xlink:href="#3d1" />
<use x="320" y="80" xlink:href="#3d2" />
<use x="352" y="80" xlink:href="#3d1" />
<use x="352" y="80" xlink:href="#3d2" />
<use x="368" y="80" xlink:href="#3d1" />
<use x="368" y="80" xlink:href="#3d2" />
<use x="384" y="80" xlink:href="#3d1" />
<use x="384" y="80" xlink:href="#3d2" />
<use x="416" y="80" xlink:href="#3d1" />
<use x="416" y="80" xlink:href="#3d2" />
<use x="32" y="96" xlink:href="#3d1" />
<use x="32" y="96" xlink:href="#3d2" />
<use x="64" y="96" xlink:href="#3d1" />
<use x="64" y="96" xlink:href="#3d2" />
<use x="80" y="96" xlink:href="#3d1" />
<use x="80" y="96" xlink:href="#3d2" />
<use x="96" y="96" xlink:href="#3d1" />
<use x="96" y="96" xlink:href="#3d2" />
<use x="128" y="96" xlink:href="#3d1" />
<use x="128" y="96" xlink:href="#3d2" />
<use x="176" y="96" xlink:href="#3d1" />
<use x="176" y="96" xlink:href="#3d2" />
<use x="256" y="96" xlink:href="#3d1" />
<use x="256" y="96" xlink:href="#3d2" />
<use x="288" y="96" xlink:href="#3d1" />
<use x="288" y="96" xlink:href="#3d2" />
<use x="320" y="96" xlink:href="#3d1" />
<use x="320" y="96" xlink:href="#3d2" />
<use x="352" y="96" xlink:href="#3d1" />
<use x="352" y="96" xlink:href="#3d2" />
<use x="368" y="96" xlink:href="#3d1" />
<use x="368" y="96" xlink:href="#3d2" />
<use x="384" y="96" xlink:href="#3d1" />
<use x="384" y="96" xlink:href="#3d2" />
<use x="416" y="96" xlink:href="#3d1" />
<use x="416" y="96" xlink:href="#3d2" />
<use x="32" y="112" xlink:href="#3d1" />
<use x="32" y="112" xlink:href="#3d2" />
<use x="128" y="112" xlink:href="#3d1" />
<use x="128" y="112" xlink:href="#3d2" />
<use x="160" y="112" xlink:href="#3d1" />
<use x="160" y="112" xlink:href="#3d2" />
<use x="176" y="112" xlink:href="#3d1" />
<use x="176" y="112" xlink:href="#3d2" />
<use x="208" y="112" xlink:href="#3d1" />
<use x="208" y="112" xlink:href="#3d2" />
<use x="224" y="112" xlink:href="#3d1" />
<use x="224" y="112" xlink:href="#3d2" />
<use x="272" y="112" xlink:href="#3d1" />
<use x="272" y="112" xlink:href="#3d2" />
<use x="320" y="112" xlink:href="#3d1" />
<use x="320" y="112" xlink:href="#3d2" />
<use x="416" y="112" xlink:href="#3d1" />
<use x="416" y="112" xlink:href="#3d2" />
<use x="32" y="128" xlink:href="#3d1" />
<use x="32" y="128" xlink:href="#3d2" />
<use x="48" y="128" xlink:href="#3d1" />
<use x="48" y="128" xlink:href="#3d2" />
<use x="64" y="128" xlink:href="#3d1" />
<use x="64" y="128" xlink:href="#3d2" />
<use x="80" y="128" xlink:href="#3d1" />
<use x="80" y="128" xlink:href="#3d2" />
<use x="96" y="128" xlink:href="#3d1" />
<use x="96" y="128" xlink:href="#3d2" />
<use x="112" y="128" xlink:href="#3d1" />
<use x="112" y="128" xlink:href="#3d2" />
<use x="128" y="128" xlink:href="#3d1" />
<use x="128" y="128" xlink:href="#3d2" />
<use x="160" y="128" xlink:href="#3d1" />
<use x="160" y="128" xlink:href="#3d2" />
<use x="192" y="128" xlink:href="#3d1" />
<use x="192" y="128" xlink:href="#3d2" />
<use x="224" y="128" xlink:href="#3d1" />
<use x="224" y="128" xlink:href="#3d2" />
<use x="256" y="128" xlink:href="#3d1" />
<use x="256" y="128" xlink:href="#3d2" />
<use x="288" y="128" xlink:href="#3d1" />
<use x="288" y="128" xlink:href="#3d2" />
<use x="320" y="128" xlink:href="#3d1" />
<use x="320" y="128" xlink:href="#3d2" />
<use x="336" y="128" xlink:href="#3d1" />
<use x="336" y="128" xlink:href="#3d2" />
<use x="352" y="128" xlink:href="#3d1" />
<use x="352" y="128" xlink:href="#3d2" />
<use x="368" y="128" xlink:href="#3d1" />
<use x="368" y="128" xlink:href="#3d2" />
<use x="384" y="128" xlink:href="#3d1" />
<use x="384" y="128" xlink:href="#3d2" />
<use x="400" y="128" xlink:href="#3d1" />
<use x="400" y="128" xlink:href="#3d2" />
<use x="416" y="128" xlink:href="#3d1" />
<use x="416" y="128" xlink:href="#3d2" />
<use x="176" y="144" xlink:href="#3d1" />
<use x="176" y="144" xlink:href="#3d2" />
<use x="192" y="144" xlink:href="#3d1" />
<use x="192" y="144" xlink:href="#3d2" />
<use x="208" y="144" xlink:href="#3d1" />
<use x="208" y="144" xlink:href="#3d2" />
<use x="272" y="144" xlink:href="#3d1" />
<use x="272" y="144" xlink:href="#3d2" />
<use x="288" y="144" xlink:href="#3d1" />
<use x="288" y="144" xlink:href="#3d2" />
<use x="32" y="160" xlink:href="#3d1" />
<use x="32" y="160" xlink:href="#3d2" />
<use x="48" y="160" xlink:href="#3d1" />
<use x="48" y="160" xlink:href="#3d2" />
<use x="64" y="160" xlink:href="#3d1" />
<use x="64" y="160" xlink:href="#3d2" />
<use x="80" y="160" xlink:href="#3d1" />
<use x="80" y="160" xlink:href="#3d2" />
<use x="96" y="160" xlink:href="#3d1" />
<use x="96" y="160" xlink:href="#3d2" />
<use x="128" y="160" xlink:href="#3d1" />
<use x="128" y="160" xlink:href="#3d2" />
<use x="144" y="160" xlink:href="#3d1" />
<use x="144" y="160" xlink:href="#3d2" />
<use x="160" y="160" xlink:href="#3d1" />
<use x="160" y="160" xlink:href="#3d2" />
<use x="176" y="160" xlink:href="#3d1" />
<use x="176" y="160" xlink:href="#3d2" />
<use x="208" y="160" xlink:href="#3d1" />
<use x="208" y="160" xlink:href="#3d2" />
<use x="240" y="160" xlink:href="#3d1" />
<use x="240" y="160" xlink:href="#3d2" />
<use x="256" y="160" xlink:href="#3d1" />
<use x="256" y="160" xlink:href="#3d2" />
<use x="272" y="160" xlink:href="#3d1" />
<use x="272" y="160" xlink:href="#3d2" />
<use x="288" y="160" xlink:href="#3d1" />
<use x="288" y="160" xlink:href="#3d2" />
<use x="304" y="160" xlink:href="#3d1" />
<use x="304" y="160" xlink:href="#3d2" />
<use x="336" y="160" xlink:href="#3d1" />
<use x="336" y="160" xlink:href="#3d2" />
<use x="368" y="160" xlink:href="#3d1" />
<use x="368" y="160" xlink:href="#3d2" />
<use x="400" y="160" xlink:href="#3d1" />
<use x="400" y="160" xlink:href="#3d2" />
<use x="32" y="176" xlink:href="#3d1" />
<use x="32" y="176" xlink:href="#3d2" />
<use x="64" y="176" xlink:href="#3d1" />
<use x="64" y="176" xlink:href="#3d2" />
<use x="80" y="176" xlink:href="#3d1" />
<use x="80" y="176" xlink:href="#3d2" />
<use x="160" y="176" xlink:href="#3d1" />
<use x="160" y="176" xlink:href="#3d2" />
<use x="192" y="176" xlink:href="#3d1" />
<use x="192" y="176" xlink:href="#3d2" />
<use x="224" y="176" xlink:href="#3d1" />
<use x="224" y="176" xlink:href="#3d2" />
<use x="256" y="176" xlink:href="#3d1" />
<use x="256" y="176" xlink:href="#3d2" />
<use x="288" y="176" xlink:href="#3d1" />
<use x="288" y="176" xlink:href="#3d2" />
<use x="336" y="176" xlink:href="#3d1" />
<use x="336" y="176" xlink:href="#3d2" />
<use x="400" y="176" xlink:href="#3d1" />
<use x="400" y="176" xlink:href="#3d2" />
<use x="32" y="192" xlink:href="#3d1" />
<use x="32" y="192" xlink:href="#3d2" />
<use x="48" y="192" xlink:href="#3d1" />
<use x="48" y="192" xlink:href="#3d2" />
<use x="80" y="192" xlink:href="#3d1" />
<use x="80" y="192" xlink:href="#3d2" />
<use x="96" y="192" xlink:href="#3d1" />
<use x="96" y="192" xlink:href="#3d2" />
<use x="128" y="192" xlink:href="#3d1" />
<use x="128" y="192" xlink:href="#3d2" />
<use x="192" y="192" xlink:href="#3d1" />
<use x="192" y="192" xlink:href="#3d2" />
<use x="272" y="192" xlink:href="#3d1" />
<use x="272" y="192" xlink:href="#3d2" />
<use x="288" y="192" xlink:href="#3d1" />
<use x="288" y="192" xlink:href="#3d2" />
<use x="304" y="192" xlink:href="#3d1" />
<use x="304" y="192" xlink:href="#3d2" />
<use x="320" y="192" xlink:href="#3d1" />
<use x="320" y="192" xlink:href="#3d2" />
<use x="336" y="192" xlink:href="#3d1" />
<use x="336" y="192" xlink:href="#3d2" />
<use x="352" y="192" xlink:href="#3d1" />
<use x="352" y="192" xlink:href="#3d2" />
<use x="368" y="192" xlink:href="#3d1" />
<use x="368" y="192" xlink:href="#3d2" />
<use x="400" y="192" xlink:href="#3d1" />
<use x="400" y="192" xlink:href="#3d2" />
<use x="416" y="192" xlink:href="#3d1" />
<use x="416" y="192" xlink:href="#3d2" />
<use x="48" y="208" xlink:href="#3d1" />
<use x="48" y="208" xlink:href="#3d2" />
<use x="64" y="208" xlink:href="#3d1" />
<use x="64" y="208" xlink:href="#3d2" />
<use x="80" y="208" xlink:href="#3d1" />
<use x="80" y="208" xlink:href="#3d2" />
<use x="96" y="208" xlink:href="#3d1" />
<use x="96" y="208" xlink:href="#3d2" />
<use x="224" y="208" xlink:href="#3d1" />
<use x="224" y="208" xlink:href="#3d2" />
<use x="272" y="208" xlink:href="#3d1" />
<use x="272" y="208" xlink:href="#3d2" />
<use x="304" y="208" xlink:href="#3d1" />
<use x="304" y="208" xlink:href="#3d2" />
<use x="320" y="208" xlink:href="#3d1" />
<use x="320" y="208" xlink:href="#3d2" />
<use x="336" y="208" xlink:href="#3d1" />
<use x="336" y="208" xlink:href="#3d2" />
<use x="416" y="208" xlink:href="#3d1" />
<use x="416" y="208" xlink:href="#3d2" />
<use x="112" y="224" xlink:href="#3d1" />
<use x="112" y="224" xlink:href="#3d2" />
<use x="128" y="224" xlink:href="#3d1" />
<use x="128" y="224" xlink:href="#3d2" />
<use x="144" y="224" xlink:href="#3d1" />
<use x="144" y="224" xlink:href="#3d2" />
<use x="176" y="224" xlink:href="#3d1" />
<use x="176" y="224" xlink:href="#3d2" />
<use x="192" y="224" xlink:href="#3d1" />
<use x="192" y="224" xlink:href="#3d2" />
<use x="224" y="224" xlink:href="#3d1" />
<use x="224" y="224" xlink:href="#3d2" />
<use x="240" y="224" xlink:href="#3d1" />
<use x="240" y="224" xlink:href="#3d2" />
<use x="272" y="224" xlink:href="#3d1" />
<use x="272" y="224" xlink:href="#3d2" />
<use x="304" y="224" xlink:href="#3d1" />
<use x="304" y="224" xlink:href="#3d2" />
<use x="320" y="224" xlink:href="#3d1" />
<use x="320" y="224" xlink:href="#3d2" />
<use x="336" y="224" xlink:href="#3d1" />
<use x="336" y="224" xlink:href="#3d2" />
<use x="352" y="224" xlink:href="#3d1" />
<use x="352" y="224" xlink:href="#3d2" />
<use x="384" y="224" xlink:href="#3d1" />
<use x="384" y="224" xlink:href="#3d2" />
<use x="400" y="224" xlink:href="#3d1" />
<use x="400" y="224" xlink:href="#3d2" />
<use x="416" y="224" xlink:href="#3d1" />
<use x="416" y="224" xlink:href="#3d2" />
<use x="32" y="240" xlink:href="#3d1" />
<use x="32" y="240" xlink:href="#3d2" />
<use x="64" y="240" xlink:href="#3d1" />
<use x="64" y="240" xlink:href="#3d2" />
<use x="80" y="240" xlink:href="#3d1" />
<use x="80" y="240" xlink:href="#3d2" />
<use x="96" y="240" xlink:href="#3d1" />
<use x="96" y="240" xlink:href="#3d2" />
<use x="112" y="240" xlink:href="#3d1" />
<use x="112" y="240" xlink:href="#3d2" />
<use x="144" y="240" xlink:href="#3d1" />
<use x="144" y="240" xlink:href="#3d2" />
<use x="160" y="240" xlink:href="#3d1" />
<use x="160" y="240" xlink:href="#3d2" />
<use x="240" y="240" xlink:href="#3d1" />
<use x="240" y="240" xlink:href="#3d2" />
<use x="288" y="240" xlink:href="#3d1" />
<use x="288" y="240" xlink:href="#3d2" />
<use x="336" y="240" xlink:href="#3d1" />
<use x="336" y="240" xlink:href="#3d2" />
<use x="368" y="240" xlink:href="#3d1" />
<use x="368" y="240" xlink:href="#3d2" />
<use x="400" y="240" xlink:href="#3d1" />
<use x="400" y="240" xlink:href="#3d2" />
<use x="32" y="256" xlink:href="#3d1" />
<use x="32" y="256" xlink:href="#3d2" />
<use x="80" y="256" xlink:href="#3d1" />
<use x="80" y="256" xlink:href="#3d2" />
<use x="128" y="256" xlink:href="#3d1" />
<use x="128" y="256" xlink:href="#3d2" />
<use x="144" y="256" xlink:href="#3d1" />
<use x="144" y="256" xlink:href="#3d2" />
<use x="160" y="256" xlink:href="#3d1" />
<use x="160" y="256" xlink:href="#3d2" />
<use x="208" y="256" xlink:href="#3d1" />
<use x="208" y="256" xlink:href="#3d2" />
<use x="224" y="256" xlink:href="#3d1" />
<use x="224" y="256" xlink:href="#3d2" />
<use x="240" y="256" xlink:href="#3d1" />
<use x="240" y="256" xlink:href="#3d2" />
<use x="256" y="256" xlink:href="#3d1" />
<use x="256" y="256" xlink:href="#3d2" />
<use x="272" y="256" xlink:href="#3d1" />
<use x="272" y="256" xlink:href="#3d2" />
<use x="320" y="256" xlink:href="#3d1" />
<use x="320" y="256" xlink:href="#3d2" />
<use x="336" y="256" xlink:href="#3d1" />
<use x="336" y="256" xlink:href="#3d2" />
<use x="352" y="256" xlink:href="#3d1" />
<use x="352" y="256" xlink:href="#3d2" />
<use x="368" y="256" xlink:href="#3d1" />
<use x="368" y="256" xlink:href="#3d2" />
<use x="400" y="256" xlink:href="#3d1" />
<use x="400" y="256" xlink:href="#3d2" />
<use x="416" y="256" xlink:href="#3d1" />
<use x="416" y="256" xlink:href="#3d2" />
<use x="32" y="272" xlink:href="#3d1" />
<use x="32" y="272" xlink:href="#3d2" />
<use x="64" y="272" xlink:href="#3d1" />
<use x="64" y="272" xlink:href="#3d2" />
<use x="80" y="272" xlink:href="#3d1" />
<use x="80" y="272" xlink:href="#3d2" />
<use x="144" y="272" xlink:href="#3d1" />
<use x="144" y="272" xlink:href="#3d2" />
<use x="208" y="272" xlink:href="#3d1" />
<use x="208" y="272" xlink:href="#3d2" />
<use x="272" y="272" xlink:href="#3d1" />
<use x="272" y="272" xlink:href="#3d2" />
<use x="336" y="272" xlink:href="#3d1" />
<use x="336" y="272" xlink:href="#3d2" />
<use x="352" y="272" xlink:href="#3d1" />
<use x="352" y="272" xlink:href="#3d2" />
<use x="416" y="272" xlink:href="#3d1" />
<use x="416" y="272" xlink:href="#3d2" />
<use x="32" y="288" xlink:href="#3d1" />
<use x="32" y="288" xlink:href="#3d2" />
<use x="96" y="288" xlink:href="#3d1" />
<use x="96" y="288" xlink:href="#3d2" />
<use x="112" y="288" xlink:href="#3d1" />
<use x="112" y="288" xlink:href="#3d2" />
<use x="128" y="288" xlink:href="#3d1" />
<use x="128" y="288" xlink:href="#3d2" />
<use x="144" y="288" xlink:href="#3d1" />
<use x="144" y="288" xlink:href="#3d2" />
<use x="160" y="288" xlink:href="#3d1" />
<use x="160" y="288" xlink:href="#3d2" />
<use x="192" y="288" xlink:href="#3d1" />
<use x="192" y="288" xlink:href="#3d2" />
<use x="208" y="288" xlink:href="#3d1" />
<use x="208" y="288" xlink:href="#3d2" />
<use x="224" y="288" xlink:href="#3d1" />
<use x="224" y="288" xlink:href="#3d2" />
<use x="240" y="288" xlink:href="#3d1" />
<use x="240" y="288" xlink:href="#3d2" />
<use x="256" y="288" xlink:href="#3d1" />
<use x="256" y="288" xlink:href="#3d2" />
<use x="288" y="288" xlink:href="#3d1" />
<use x="288" y="288" xlink:href="#3d2" />
<use x="304" y="288" xlink:href="#3d1" />
<use x="304" y="288" xlink:href="#3d2" />
<use x="320" y="288" xlink:href="#3d1" />
<use x="320" y="288" xlink:href="#3d2" />
<use x="336" y="288" xlink:href="#3d1" />
<use x="336" y="288" xlink:href="#3d2" />
<use x="352" y="288" xlink:href="#3d1" />
<use x="352" y="288" xlink:href="#3d2" />
<use x="384" y="288" xlink:href="#3d1" />
<use x="384" y="288" xlink:href="#3d2" />
<use x="160" y="304" xlink:href="#3d1" />
<use x="160" y="304" xlink:href="#3d2" />
<use x="176" y="304" xlink:href="#3d1" />
<use x="176" y="304" xlink:href="#3d2" />
<use x="192" y="304" xlink:href="#3d1" />
<use x="192" y="304" xlink:href="#3d2" />
<use x="224" y="304" xlink:href="#3d1" />
<use x="224" y="304" xlink:href="#3d2" />
<use x="272" y="304" xlink:href="#3d1" />
<use x="272" y="304" xlink:href="#3d2" />
<use x="288" y="304" xlink:href="#3d1" />
<use x="288" y="304" xlink:href="#3d2" />
<use x="352" y="304" xlink:href="#3d1" />
<use x="352" y="304" xlink:href="#3d2" />
<use x="368" y="304" xlink:href="#3d1" />
<use x="368" y="304" xlink:href="#3d2" />
<use x="32" y="320" xlink:href="#3d1" />
<use x="32" y="320" xlink:href="#3d2" />
<use x="48" y="320" xlink:href="#3d1" />
<use x="48" y="320" xlink:href="#3d2" />
<use x="64" y="320" xlink:href="#3d1" />
<use x="64" y="320" xlink:href="#3d2" />
<use x="80" y="320" xlink:href="#3d1" />
<use x="80" y="320" xlink:href="#3d2" />
<use x="96" y="320" xlink:href="#3d1" />
<use x="96" y="320" xlink:href="#3d2" />
<use x="112" y="320" xlink:href="#3d1" />
<use x="112" y="320" xlink:href="#3d2" />
<use x="128" y="320" xlink:href="#3d1" />
<use x="128" y="320" xlink:href="#3d2" />
<use x="160" y="320" xlink:href="#3d1" />
<use x="160" y="320" xlink:href="#3d2" />
<use x="176" y="320" xlink:href="#3d1" />
<use x="176" y="320" xlink:href="#3d2" />
<use x="192" y="320" xlink:href="#3d1" />
<use x="192" y="320" xlink:href="#3d2" />
<use x="240" y="320" xlink:href="#3d1" />
<use x="240" y="320" xlink:href="#3d2" />
<use x="288" y="320" xlink:href="#3d1" />
<use x="288" y="320" xlink:href="#3d2" />
<use x="320" y="320" xlink:href="#3d1" />
<use x="320" y="320" xlink:href="#3d2" />
<use x="352" y="320" xlink:href="#3d1" />
<use x="352" y="320" xlink:href="#3d2" />
<use x="384" y="320" xlink:href="#3d1" />
<use x="384" y="320" xlink:href="#3d2" />
<use x="400" y="320" xlink:href="#3d1" />
<use x="400" y="320" xlink:href="#3d2" />
<use x="416" y="320" xlink:href="#3d1" />
<use x="416" y="320" xlink:href="#3d2" />
<use x="32" y="336" xlink:href="#3d1" />
<use x="32" y="336" xlink:href="#3d2" />
<use x="128" y="336" xlink:href="#3d1" />
<use x="128" y="336" xlink:href="#3d2" />
<use x="192" y="336" xlink:href="#3d1" />
<use x="192" y="336" xlink:href="#3d2" />
<use x="208" y="336" xlink:href="#3d1" />
<use x="208" y="336" xlink:href="#3d2" />
<use x="256" y="336" xlink:href="#3d1" />
<use x="256" y="336" xlink:href="#3d2" />
<use x="288" y="336" xlink:href="#3d1" />
<use x="288" y="336" xlink:href="#3d2" />
<use x="352" y="336" xlink:href="#3d1" />
<use x="352" y="336" xlink:href="#3d2" />
<use x="368" y="336" xlink:href="#3d1" />
<use x="368" y="336" xlink:href="#3d2" />
<use x="400" y="336" xlink:href="#3d1" />
<use x="400" y="336" xlink:href="#3d2" />
<use x="416" y="336" xlink:href="#3d1" />
<use x="416" y="336" xlink:href="#3d2" />
<use x="32" y="352" xlink:href="#3d1" />
<use x="32" y="352" xlink:href="#3d2" />
<use x="64" y="352" xlink:href="#3d1" />
<use x="64" y="352" xlink:href="#3d2" />
<use x="80" y="352" xlink:href="#3d1" />
<use x="80" y="352" xlink:href="#3d2" />
<use x="96" y="352" xlink:href="#3d1" />
<use x="96" y="352" xlink:href="#3d2" />
<use x="128" y="352" xlink:href="#3d1" />
<use x="128" y="352" xlink:href="#3d2" />
<use x="160" y="352" xlink:href="#3d1" />
<use x="160" y="352" xlink:href="#3d2" />
<use x="192" y="352" xlink:href="#3d1" />
<use x="192" y="352" xlink:href="#3d2" />
<use x="208" y="352" xlink:href="#3d1" />
<use x="208" y="352" xlink:href="#3d2" />
<use x="224" y="352" xlink:href="#3d1" />
<use x="224" y="352" xlink:href="#3d2" />
<use x="240" y="352" xlink:href="#3d1" />
<use x="240" y="352" xlink:href="#3d2" />
<use x="256" y="352" xlink:href="#3d1" />
<use x="256" y="352" xlink:href="#3d2" />
<use x="272" y="352" xlink:href="#3d1" />
<use x="272" y="352" xlink:href="#3d2" />
<use x="288" y="352" xlink:href="#3d1" />
<use x="288" y="352" xlink:href="#3d2" />
<use x="304" y="352" xlink:href="#3d1" />
<use x="304" y="352" xlink:href="#3d2" />
<use x="320" y="352" xlink:href="#3d1" />
<use x="320" y="352" xlink:href="#3d2" />
<use x="336" y="352" xlink:href="#3d1" />
<use x="336" y="352" xlink:href="#3d2" />
<use x="352" y="352" xlink:href="#3d1" />
<use x="352" y="352" xlink:href="#3d2" />
<use x="384" y="352" xlink:href="#3d1" />
<use x="384" y="352" xlink:href="#3d2" />
<use x="32" y="368" xlink:href="#3d1" />
<use x="32" y="368" xlink:href="#3d2" />
<use x="64" y="368" xlink:href="#3d1" />
<use x="64" y="368" xlink:href="#3d2" />
<use x="80" y="368" xlink:href="#3d1" />
<use x="80" y="368" xlink:href="#3d2" />
<use x="96" y="368" xlink:href="#3d1" />
<use x="96" y="368" xlink:href="#3d2" />
<use x="128" y="368" xlink:href="#3d1" />
<use x="128" y="368" xlink:href="#3d2" />
<use x="160" y="368" xlink:href="#3d1" />
<use x="160" y="368" xlink:href="#3d2" />
<use x="208" y="368" xlink:href="#3d1" />
<use x="208" y="368" xlink:href="#3d2" />
<use x="224" y="368" xlink:href="#3d1" />
<use x="224" y="368" xlink:href="#3d2" />
<use x="240" y="368" xlink:href="#3d1" />
<use x="240" y="368" xlink:href="#3d2" />
<use x="288" y="368" xlink:href="#3d1" />
<use x="288" y="368" xlink:href="#3d2" />
<use x="320" y="368" xlink:href="#3d1" />
<use x="320" y="368" xlink:href="#3d2" />
<use x="352" y="368" xlink:href="#3d1" />
<use x="352" y="368" xlink:href="#3d2" />
<use x="368" y="368" xlink:href="#3d1" />
<use x="368" y="368" xlink:href="#3d2" />
<use x="384" y="368" xlink:href="#3d1" />
<use x="384" y="368" xlink:href="#3d2" />
<use x="400" y="368" xlink:href="#3d1" />
<use x="400" y="368" xlink:href="#3d2" />
<use x="416" y="368" xlink:href="#3d1" />
<use x="416" y="368" xlink:href="#3d2" />
<use x="32" y="384" xlink:href="#3d1" />
<use x="32" y="384" xlink:href="#3d2" />
<use x="64" y="384" xlink:href="#3d1" />
<use x="64" y="384" xlink:href="#3d2" />
<use x="80" y="384" xlink:href="#3d1" />
<use x="80" y="384" xlink:href="#3d2" />
<use x="96" y="384" xlink:href="#3d1" />
<use x="96" y="384" xlink:href="#3d2" />
<use x="128" y="384" xlink:href="#3d1" />
<use x="128" y="384" xlink:href="#3d2" />
<use x="160" y="384" xlink:href="#3d1" />
<use x="160" y="384" xlink:href="#3d2" />
<use x="176" y="384" xlink:href="#3d1" />
<use x="176" y="384" xlink:href="#3d2" />
<use x="240" y="384" xlink:href="#3d1" />
<use x="240" y="384" xlink:href="#3d2" />
<use x="256" y="384" xlink:href="#3d1" />
<use x="256" y="384" xlink:href="#3d2" />
<use x="368" y="384" xlink:href="#3d1" />
<use x="368" y="384" xlink:href="#3d2" />
<use x="384" y="384" xlink:href="#3d1" />
<use x="384" y="384" xlink:href="#3d2" />
<use x="416" y="384" xlink:href="#3d1" />
<use x="416" y="384" xlink:href="#3d2" />
<use x="32" y="400" xlink:href="#3d1" />
<use x="32" y="400" xlink:href="#3d2" />
<use x="128" y="400" xlink:href="#3d1" />
<use x="128" y="400" xlink:href="#3d2" />
<use x="160" y="400" xlink:href="#3d1" />
<use x="160" y="400" xlink:href="#3d2" />
<use x="256" y="400" xlink:href="#3d1" />
<use x="256" y="400" xlink:href="#3d2" />
<use x="288" y="400" xlink:href="#3d1" />
<use x="288" y="400" xlink:href="#3d2" />
<use x="304" y="400" xlink:href="#3d1" />
<use x="304" y="400" xlink:href="#3d2" />
<use x="336" y="400" xlink:href="#3d1" />
<use x="336" y="400" xlink:href="#3d2" />
<use x="352" y="400" xlink:href="#3d1" />
<use x="352" y="400" xlink:href="#3d2" />
<use x="368" y="400" xlink:href="#3d1" />
<use x="368" y="400" xlink:href="#3d2" />
<use x="416" y="400" xlink:href="#3d1" />
<use x="416" y="400" xlink:href="#3d2" />
<use x="32" y="416" xlink:href="#3d1" />
<use x="32" y="416" xlink:href="#3d2" />
<use x="48" y="416" xlink:href="#3d1" />
<use x="48" y="416" xlink:href="#3d2" />
<use x="64" y="416" xlink:href="#3d1" />
<use x="64" y="416" xlink:href="#3d2" />
<use x="80" y="416" xlink:href="#3d1" />
<use x="80" y="416" xlink:href="#3d2" />
<use x="96" y="416" xlink:href="#3d1" />
<use x="96" y="416" xlink:href="#3d2" />
<use x="112" y="416" xlink:href="#3d1" />
<use x="112" y="416" xlink:href="#3d2" />
<use x="128" y="416" xlink:href="#3d1" />
<use x="128" y="416" xlink:href="#3d2" />
<use x="160" y="416" xlink:href="#3d1" />
<use x="160" y="416" xlink:href="#3d2" />
<use x="176" y="416" xlink:href="#3d1" />
<use x="176" y="416" xlink:href="#3d2" />
<use x="192" y="416" xlink:href="#3d1" />
<use x="192" y="416" xlink:href="#3d2" />
<use x="208" y="416" xlink:href="#3d1" />
<use x="208" y="416" xlink:href="#3d2" />
<use x="224" y="416" xlink:href="#3d1" />
<use x="224" y="416" xlink:href="#3d2" />
<use x="240" y="416" xlink:href="#3d1" />
<use x="240" y="416" xlink:href="#3d2" />
<use x="256" y="416" xlink:href="#3d1" />
<use x="256" y="416" xlink:href="#3d2" />
<use x="336" y="416" xlink:href="#3d1" />
<use x="336" y="416" xlink:href="#3d2" />
<use x="352" y="416" xlink:href="#3d1" />
<use x="352" y="416" xlink:href="#3d2" />
<use x="368" y="416" xlink:href="#3d1" />
<use x="368" y="416" xlink:href="#3d2" />
<use x="384" y="416" xlink:href="#3d1" />
<use x="384" y="416" xlink:href="#3d2" />
<use x="400" y="416" xlink:href="#3d1" />
<use x="400" y="416" xlink:href="#3d2" />
<use x="416" y="416" xlink:href="#3d1" />
<use x="416" y="416" xlink:href="#3d2" />
</g>
</svg>