<?xml version="1.0" encoding="utf-8"?>
<!DOCTYPE svg PUBLIC "-//W3C//DTD SVG 20010904//EN" "http://www.w3.org/TR/2001/REC-SVG-20010904/DTD/svg10.dtd">
<svg xmlns="http://www.w3.org/2000/svg" xml:space="preserve" xmlns:xlink="http://www.w3.org/1999/xlink" width="464" height="464" viewBox="0 0 464 464">
<desc></desc>
<rect width="464" height="464" fill="#ffffff" cx="0" cy="0" />
<defs>
<rect id="p" width="16" height="16" />
<circle id="circle" r="8" stroke-width="0" fill="000000" />
<rect id="hor" width="16" height="4" />
<rect id="ver" width="4" height="16" />
<polygon id="3d1" points="0,0 16,0 0,16" stroke-width="0" fill="000000" />
<polygon id="3d2" points="0,16 16,0 16,16" stroke-width="0" fill="#808080" />
</defs>
<g fill="#000000">
<use x="32" y="38" xlink:href="#hor" />
<use x="38" y="32" xlink:href="#ver" />
<use x="48" y="38" xlink:href="#hor" />
<use x="54" y="32" xlink:href="#ver" />
<use x="64" y="38" xlink:href="#hor" />
<use x="70" y="32" xlink:href="#ver" />
<use x="80" y="38" xlink:href="#hor" />
<use x="86" y="32" xlink:href="#ver" />
<use x="96" y="38" xlink:href="#hor" />
<use x="102" y="32" xlink:href="#ver" />
<use x="112" y="38" xlink:href="#hor" />
<use x="118" y="32" xlink:href="#ver" />
<use x="128" y="38" xlink:href="#hor" />
<use x="134" y="32" xlink:href="#ver" />
<use x="160" y="38" xlink:href="#hor" />
<use x="166" y="32" xlink:href="#ver" />
<use x="176" y="38" xlink:href="#hor" />
<use x="182" y="32" xlink:href="#ver" />
<use x="224" y="38" xlink:href="#hor" />
<use x="230" y="32" xlink:href="#ver" />
<use x="240" y="38" xlink:href="#hor" />
<use x="246" y="32" xlink:href="#ver" />
<use x="320" y="38" xlink:href="#hor" />
<use x="326" y="32" xlink:href="#ver" />
<use x="336" y="38" xlink:href="#hor" />
<use x="342" y="32" xlink:href="#ver" />
<use x="352" y="38" xlink:href="#hor" />
<use x="358" y="32" xlink:href="#ver" />
<use x="368" y="38" xlink:href="#hor" />
<use x="374" y="32" xlink:href="#ver" />
<use x="384" y="38" xlink:href="#hor" />
<use x="390" y="32" xlink:href="#ver" />
<use x="400" y="38" xlink:href="#hor" />
<use x="406" y="32" xlink:href="#ver" />
<use x="416" y="38" xlink:href="#hor" />
<use x="422" y="32" xlink:href="#ver" />
<use x="32" y="54" xlink:href="#hor" />
<use x="38" y="48" xlink:href="#ver" />
<use x="128" y="54" xlink:href="#hor" />
<use x="134" y="48" xlink:href="#ver" />
<use x="176" y="54" xlink:href="#hor" />
<use x="182" y="48" xlink:href="#ver" />
<use x="224" y="54" xlink:href="#hor" />
<use x="230" y="48" xlink:href="#ver" />
<use x="240" y="54" xlink:href="#hor" />
<use x="246" y="48" xlink:href="#ver" />
<use x="256" y="54" xlink:href="#hor" />
<use x="262" y="48" xlink:href="#ver" />
<use x="272" y="54" xlink:href="#hor" />
<use x="278" y="48" xlink:href="#ver" />
<use x="288" y="54" xlink:href="#hor" />
<use x="294" y="48" xlink:href="#ver" />
<use x="320" y="54" xlink:href="#hor" />
<use x="326" y="48" xlink:href="#ver" />
<use x="416" y="54" xlink:href="#hor" />
<use x="422" y="48" xlink:href="#ver" />
<use x="32" y="70" xlink:href="#hor" />
<use x="38" y="64" xlink:href="#ver" />
<use x="64" y="70" xlink:href="#hor" />
<use x="70" y="64" xlink:href="#ver" />
<use x="80" y="70" xlink:href="#hor" />
<use x="86" y="64" xlink:href="#ver" />
<use x="96" y="70" xlink:href="#hor" />
<use x="102" y="64" xlink:href="#ver" />
<use x="128" y="70" xlink:href="#hor" />
<use x="134" y="64" xlink:href="#ver" />
<use x="176" y="70" xlink:href="#hor" />
<use x="182" y="64" xlink:href="#ver" />
<use x="224" y="70" xlink:href="#hor" />
<use x="230" y="64" xlink:href="#ver" />
<use x="256" y="70" xlink:href="#hor" />
<use x="262" y="64" xlink:href="#ver" />
<use x="288" y="70" xlink:href="#hor" />
<use x="294" y="64" xlink:href="#ver" />
<use x="320" y="70" xlink:href="#hor" />
<use x="326" y="64" xlink:href="#ver" />
<use x="352" y="70" xlink:href="#hor" />
<use x="358" y="64" xlink:href="#ver" />
<use x="368" y="70" xlink:href="#hor" />
<use x="374" y="64" xlink:href="#ver" />
<use x="384" y="70" xlink:href="#hor" />
<use x="390" y="64" xlink:href="#ver" />
<use x="416" y="70" xlink:href="#hor" />
<use x="422" y="64" xlink:href="#ver" />
<use x="32" y="86" xlink:href="#hor" />
<use x="38" y="80" xlink:href="#ver" />
<use x="64" y="86" xlink:href="#hor" />
<use x="70" y="80" xlink:href="#ver" />
<use x="80" y="86" xlink:href="#hor" />
<use x="86" y="80" xlink:href="#ver" />
<use x="96" y="86" xlink:href="#hor" />
<use x="102" y="80" xlink:href="#ver" />
<use x="128" y="86" xlink:href="#hor" />
<use x="134" y="80" xlink:href="#ver" />
<use x="192" y="86" xlink:href="#hor" />
<use x="198" y="80" xlink:href="#ver" />
<use x="208" y="86" xlink:href="#hor" />
<use x="214" y="80" xlink:href="#ver" />
<use x="320" y="86" xlink:href="#hor" />
<use x="326" y="80" xlink:href="#ver" />
<use x="352" y="86" xlink:href="#hor" />
<use x="358" y="80" xlink:href="#ver" />
<use x="368" y="86" xlink:href="#hor" />
<use x="374" y="80" xlink:href="#ver" />
<use x="384" y="86" xlink:href="#hor" />
<use x="390" y="80" xlink:href="#ver" />
<use x="416" y="86" xlink:href="#hor" />
<use x="422" y="80" xlink:href="#ver" />
<use x="32" y="102" xlink:href="#hor" />
<use x="38" y="96" xlink:href="#ver" />
<use x="64" y="102" xlink:href="#hor" />
<use x="70" y="96" xlink:href="#ver" />
<use x="80" y="102" xlink:href="#hor" />
<use x="86" y="96" xlink:href="#ver" />
<use x="96" y="102" xlink:href="#hor" />
<use x="102" y="96" xlink:href="#ver" />
<use x="128" y="102" xlink:href="#hor" />
<use x="134" y="96" xlink:href="#ver" />
<use x="160" y="102" xlink:href="#hor" />
<use x="166" y="96" xlink:href="#ver" />
<use x="176" y="102" xlink:href="#hor" />
<use x="182" y="96" xlink:href="#ver" />
<use x="192" y="102" xlink:href="#hor" />
<use x="198" y="96" xlink:href="#ver" />
<use x="240" y="102" xlink:href="#hor" />
<use x="246" y="96" xlink:href="#ver" />
<use x="288" y="102" xlink:href="#hor" />
<use x="294" y="96" xlink:href="#ver" />
<use x="320" y="102" xlink:href="#hor" />
<use x="326" y="96" xlink:href="#ver" />
<use x="352" y="102" xlink:href="#hor" />
<use x="358" y="96" xlink:href="#ver" />
<use x="368" y="102" xlink:href="#hor" />
<use x="374" y="96" xlink:href="#ver" />
<use x="384" y="102" xlink:href="#hor" />
<use x="390" y="96" xlink:href="#ver" />
<use x="416" y="102" xlink:href="#hor" />
<use x="422" y="96" xlink:href="#ver" />
<use x="32" y="118" xlink:href="#hor" />
<use x="38" y="112" xlink:href="#ver" />
<use x="128" y="118" xlink:href="#hor" />
<use x="134" y="112" xlink:href="#ver" />
<use x="160" y="118" xlink:href="#hor" />
<use x="166" y="112" xlink:href="#ver" />
<use x="176" y="118" xlink:href="#hor" />
<use x="182" y="112" xlink:href="#ver" />
<use x="192" y="118" xlink:href="#hor" />
<use x="198" y="112" xlink:href="#ver" />
<use x="224" y="118" xlink:href="#hor" />
<use x="230" y="112" xlink:href="#ver" />
<use x="240" y="118" xlink:href="#hor" />
<use x="246" y="112" xlink:href="#ver" />
<use x="256" y="118" xlink:href="#hor" />
<use x="262" y="112" xlink:href="#ver" />
<use x="272" y="118" xlink:href="#hor" />
<use x="278" y="112" xlink:href="#ver" />
<use x="288" y="118" xlink:href="#hor" />
<use x="294" y="112" xlink:href="#ver" />
<use x="320" y="118" xlink:href="#hor" />
<use x="326" y="112" xlink:href="#ver" />
<use x="416" y="118" xlink:href="#hor" />
<use x="422" y="112" xlink:href="#ver" />
<use x="32" y="134" xlink:href="#hor" />
<use x="38" y="128" xlink:href="#ver" />
<use x="48" y="134" xlink:href="#hor" />
<use x="54" y="128" xlink:href="#ver" />
<use x="64" y="134" xlink:href="#hor" />
<use x="70" y="128" xlink:href="#ver" />
<use x="80" y="134" xlink:href="#hor" />
<use x="86" y="128" xlink:href="#ver" />
<use x="96" y="134" xlink:href="#hor" />
<use x="102" y="128" xlink:href="#ver" />
<use x="112" y="134" xlink:href="#hor" />
<use x="118" y="128" xlink:href="#ver" />
<use x="128" y="134" xlink:href="#hor" />
<use x="134" y="128" xlink:href="#ver" />
<use x="160" y="134" xlink:href="#hor" />
<use x="166" y="128" xlink:href="#ver" />
<use x="192" y="134" xlink:href="#hor" />
<use x="198" y="128" xlink:href="#ver" />
<use x="224" y="134" xlink:href="#hor" />
<use x="230" y="128" xlink:href="#ver" />
<use x="256" y="134" xlink:href="#hor" />
<use x="262" y="128" xlink:href="#ver" />
<use x="288" y="134" xlink:href="#hor" />
<use x="294" y="128" xlink:href="#ver" />
<use x="320" y="134" xlink:href="#hor" />
<use x="326" y="128" xlink:href="#ver" />
<use x="336" y="134" xlink:href="#hor" />
<use x="342" y="128" xlink:href="#ver" />
<use x="352" y="134" xlink:href="#hor" />
<use x="358" y="128" xlink:href="#ver" />
<use x="368" y="134" xlink:href="#hor" />
<use x="374" y="128" xlink:href="#ver" />
<use x="384" y="134" xlink:href="#hor" />
<use x="390" y="128" xlink:href="#ver" />
<use x="400" y="134" xlink:href="#hor" />
<use x="406" y="128" xlink:href="#ver" />
<use x="416" y="134" xlink:href="#hor" />
<use x="422" y="128" xlink:href="#ver" />
<use x="208" y="150" xlink:href="#hor" />
<use x="214" y="144" xlink:href="#ver" />
<use x="240" y="150" xlink:href="#hor" />
<use x="246" y="144" xlink:href="#ver" />
<use x="288" y="150" xlink:href="#hor" />
<use x="294" y="144" xlink:href="#ver" />
<use x="48" y="166" xlink:href="#hor" />
<use x="54" y="160" xlink:href="#ver" />
<use x="64" y="166" xlink:href="#hor" />
<use x="70" y="160" xlink:href="#ver" />
<use x="80" y="166" xlink:href="#hor" />
<use x="86" y="160" xlink:href="#ver" />
<use x="96" y="166" xlink:href="#hor" />
<use x="102" y="160" xlink:href="#ver" />
<use x="112" y="166" xlink:href="#hor" />
<use x="118" y="160" xlink:href="#ver" />
<use x="128" y="166" xlink:href="#hor" />
<use x="134" y="160" xlink:href="#ver" />
<use x="144" y="166" xlink:href="#hor" />
<use x="150" y="160" xlink:href="#ver" />
<use x="192" y="166" xlink:href="#hor" />
<use x="198" y="160" xlink:href="#ver" />
<use x="224" y="166" xlink:href="#hor" />
<use x="230" y="160" xlink:href="#ver" />
<use x="256" y="166" xlink:href="#hor" />
<use x="262" y="160" xlink:href="#ver" />
<use x="336" y="166" xlink:href="#hor" />
<use x="342" y="160" xlink:href="#ver" />
<use x="352" y="166" xlink:href="#hor" />
<use x="358" y="160" xlink:href="#ver" />
<use x="416" y="166" xlink:href="#hor" />
<use x="422" y="160" xlink:href="#ver" />
<use x="80" y="182" xlink:href="#hor" />
<use x="86" y="176" xlink:href="#ver" />
<use x="96" y="182" xlink:href="#hor" />
<use x="102" y="176" xlink:href="#ver" />
<use x="176" y="182" xlink:href="#hor" />
<use x="182" y="176" xlink:href="#ver" />
<use x="192" y="182" xlink:href="#hor" />
<use x="198" y="176" xlink:href="#ver" />
<use x="208" y="182" xlink:href="#hor" />
<use x="214" y="176" xlink:href="#ver" />
<use x="288" y="182" xlink:href="#hor" />
<use x="294" y="176" xlink:href="#ver" />
<use x="336" y="182" xlink:href="#hor" />
<use x="342" y="176" xlink:href="#ver" />
<use x="400" y="182" xlink:href="#hor" />
<use x="406" y="176" xlink:href="#ver" />
<use x="80" y="198" xlink:href="#hor" />
<use x="86" y="192" xlink:href="#ver" />
<use x="112" y="198" xlink:href="#hor" />
<use x="118" y="192" xlink:href="#ver" />
<use x="128" y="198" xlink:href="#hor" />
<use x="134" y="192" xlink:href="#ver" />
<use x="144" y="198" xlink:href="#hor" />
<use x="150" y="192" xlink:href="#ver" />
<use x="176" y="198" xlink:href="#hor" />
<use x="182" y="192" xlink:href="#ver" />
<use x="224" y="198" xlink:href="#hor" />
<use x="230" y="192" xlink:href="#ver" />
<use x="272" y="198" xlink:href="#hor" />
<use x="278" y="192" xlink:href="#ver" />
<use x="288" y="198" xlink:href="#hor" />
<use x="294" y="192" xlink:href="#ver" />
<use x="304" y="198" xlink:href="#hor" />
<use x="310" y="192" xlink:href="#ver" />
<use x="336" y="198" xlink:href="#hor" />
<use x="342" y="192" xlink:href="#ver" />
<use x="368" y="198" xlink:href="#hor" />
<use x="374" y="192" xlink:href="#ver" />
<use x="400" y="198" xlink:href="#hor" />
<use x="406" y="192" xlink:href="#ver" />
<use x="416" y="198" xlink:href="#hor" />
<use x="422" y="192" xlink:href="#ver" />
<use x="32" y="214" xlink:href="#hor" />
<use x="38" y="208" xlink:href="#ver" />
<use x="80" y="214" xlink:href="#hor" />
<use x="86" y="208" xlink:href="#ver" />
<use x="160" y="214" xlink:href="#hor" />
<use x="166" y="208" xlink:href="#ver" />
<use x="192" y="214" xlink:href="#hor" />
<use x="198" y="208" xlink:href="#ver" />
<use x="224" y="214" xlink:href="#hor" />
<use x="230" y="208" xlink:href="#ver" />
<use x="256" y="214" xlink:href="#hor" />
<use x="262" y="208" xlink:href="#ver" />
<use x="288" y="214" xlink:href="#hor" />
<use x="294" y="208" xlink:href="#ver" />
<use x="416" y="214" xlink:href="#hor" />
<use x="422" y="208" xlink:href="#ver" />
<use x="80" y="230" xlink:href="#hor" />
<use x="86" y="224" xlink:href="#ver" />
<use x="96" y="230" xlink:href="#hor" />
<use x="102" y="224" xlink:href="#ver" />
<use x="112" y="230" xlink:href="#hor" />
<use x="118" y="224" xlink:href="#ver" />
<use x="128" y="230" xlink:href="#hor" />
<use x="134" y="224" xlink:href="#ver" />
<use x="192" y="230" xlink:href="#hor" />
<use x="198" y="224" xlink:href="#ver" />
<use x="208" y="230" xlink:href="#hor" />
<use x="214" y="224" xlink:href="#ver" />
<use x="224" y="230" xlink:href="#hor" />
<use x="230" y="224" xlink:href="#ver" />
<use x="304" y="230" xlink:href="#hor" />
<use x="310" y="224" xlink:href="#ver" />
<use x="320" y="230" xlink:href="#hor" />
<use x="326" y="224" xlink:href="#ver" />
<use x="352" y="230" xlink:href="#hor" />
<use x="358" y="224" xlink:href="#ver" />
<use x="384" y="230" xlink:href="#hor" />
<use x="390" y="224" xlink:href="#ver" />
<use x="400" y="230" xlink:href="#hor" />
<use x="406" y="224" xlink:href="#ver" />
<use x="416" y="230" xlink:href="#hor" />
<use x="422" y="224" xlink:href="#ver" />
<use x="32" y="246" xlink:href="#hor" />
<use x="38" y="240" xlink:href="#ver" />
<use x="48" y="246" xlink:href="#hor" />
<use x="54" y="240" xlink:href="#ver" />
<use x="64" y="246" xlink:href="#hor" />
<use x="70" y="240" xlink:href="#ver" />
<use x="80" y="246" xlink:href="#hor" />
<use x="86" y="240" xlink:href="#ver" />
<use x="144" y="246" xlink:href="#hor" />
<use x="150" y="240" xlink:href="#ver" />
<use x="160" y="246" xlink:href="#hor" />
<use x="166" y="240" xlink:href="#ver" />
<use x="208" y="246" xlink:href="#hor" />
<use x="214" y="240" xlink:href="#ver" />
<use x="224" y="246" xlink:href="#hor" />
<use x="230" y="240" xlink:href="#ver" />
<use x="240" y="246" xlink:href="#hor" />
<use x="246" y="240" xlink:href="#ver" />
<use x="256" y="246" xlink:href="#hor" />
<use x="262" y="240" xlink:href="#ver" />
<use x="288" y="246" xlink:href="#hor" />
<use x="294" y="240" xlink:href="#ver" />
<use x="336" y="246" xlink:href="#hor" />
<use x="342" y="240" xlink:href="#ver" />
<use x="368" y="246" xlink:href="#hor" />
<use x="374" y="240" xlink:href="#ver" />
<use x="400" y="246" xlink:href="#hor" />
<use x="406" y="240" xlink:href="#ver" />
<use x="32" y="262" xlink:href="#hor" />
<use x="38" y="256" xlink:href="#ver" />
<use x="64" y="262" xlink:href="#hor" />
<use x="70" y="256" xlink:href="#ver" />
<use x="96" y="262" xlink:href="#hor" />
<use x="102" y="256" xlink:href="#ver" />
<use x="128" y="262" xlink:href="#hor" />
<use x="134" y="256" xlink:href="#ver" />
<use x="144" y="262" xlink:href="#hor" />
<use x="150" y="256" xlink:href="#ver" />
<use x="160" y="262" xlink:href="#hor" />
<use x="166" y="256" xlink:href="#ver" />
<use x="192" y="262" xlink:href="#hor" />
<use x="198" y="256" xlink:href="#ver" />
<use x="256" y="262" xlink:href="#hor" />
<use x="262" y="256" xlink:href="#ver" />
<use x="272" y="262" xlink:href="#hor" />
<use x="278" y="256" xlink:href="#ver" />
<use x="320" y="262" xlink:href="#hor" />
<use x="326" y="256" xlink:href="#ver" />
<use x="352" y="262" xlink:href="#hor" />
<use x="358" y="256" xlink:href="#ver" />
<use x="368" y="262" xlink:href="#hor" />
<use x="374" y="256" xlink:href="#ver" />
<use x="400" y="262" xlink:href="#hor" />
<use x="406" y="256" xlink:href="#ver" />
<use x="416" y="262" xlink:href="#hor" />
<use x="422" y="256" xlink:href="#ver" />
<use x="32" y="278" xlink:href="#hor" />
<use x="38" y="272" xlink:href="#ver" />
<use x="80" y="278" xlink:href="#hor" />
<use x="86" y="272" xlink:href="#ver" />
<use x="96" y="278" xlink:href="#hor" />
<use x="102" y="272" xlink:href="#ver" />
<use x="144" y="278" xlink:href="#hor" />
<use x="150" y="272" xlink:href="#ver" />
<use x="160" y="278" xlink:href="#hor" />
<use x="166" y="272" xlink:href="#ver" />
<use x="224" y="278" xlink:href="#hor" />
<use x="230" y="272" xlink:href="#ver" />
<use x="240" y="278" xlink:href="#hor" />
<use x="246" y="272" xlink:href="#ver" />
<use x="288" y="278" xlink:href="#hor" />
<use x="294" y="272" xlink:href="#ver" />
<use x="304" y="278" xlink:href="#hor" />
<use x="310" y="272" xlink:href="#ver" />
<use x="352" y="278" xlink:href="#hor" />
<use x="358" y="272" xlink:href="#ver" />
<use x="368" y="278" xlink:href="#hor" />
<use x="374" y="272" xlink:href="#ver" />
<use x="416" y="278" xlink:href="#hor" />
<use x="422" y="272" xlink:href="#ver" />
<use x="32" y="294" xlink:href="#hor" />
<use x="38" y="288" xlink:href="#ver" />
<use x="64" y="294" xlink:href="#hor" />
<use x="70" y="288" xlink:href="#ver" />
<use x="80" y="294" xlink:href="#hor" />
<use x="86" y="288" xlink:href="#ver" />
<use x="96" y="294" xlink:href="#hor" />
<use x="102" y="288" xlink:href="#ver" />
<use x="128" y="294" xlink:href="#hor" />
<use x="134" y="288" xlink:href="#ver" />
<use x="144" y="294" xlink:href="#hor" />
<use x="150" y="288" xlink:href="#ver" />
<use x="160" y="294" xlink:href="#hor" />
<use x="166" y="288" xlink:href="#ver" />
<use x="208" y="294" xlink:href="#hor" />
<use x="214" y="288" xlink:href="#ver" />
<use x="256" y="294" xlink:href="#hor" />
<use x="262" y="288" xlink:href="#ver" />
<use x="288" y="294" xlink:href="#hor" />
<use x="294" y="288" xlink:href="#ver" />
<use x="304" y="294" xlink:href="#hor" />
<use x="310" y="288" xlink:href="#ver" />
<use x="320" y="294" xlink:href="#hor" />
<use x="326" y="288" xlink:href="#ver" />
<use x="336" y="294" xlink:href="#hor" />
<use x="342" y="288" xlink:href="#ver" />
<use x="352" y="294" xlink:href="#hor" />
<use x="358" y="288" xlink:href="#ver" />
<use x="384" y="294" xlink:href="#hor" />
<use x="390" y="288" xlink:href="#ver" />
<use x="160" y="310" xlink:href="#hor" />
<use x="166" y="304" xlink:href="#ver" />
<use x="176" y="310" xlink:href="#hor" />
<use x="182" y="304" xlink:href="#ver" />
<use x="192" y="310" xlink:href="#hor" />
<use x="198" y="304" xlink:href="#ver" />
<use x="208" y="310" xlink:href="#hor" />
<use x="214" y="304" xlink:href="#ver" />
<use x="224" y="310" xlink:href="#hor" />
<use x="230" y="304" xlink:href="#ver" />
<use x="272" y="310" xlink:href="#hor" />
<use x="278" y="304" xlink:href="#ver" />
<use x="288" y="310" xlink:href="#hor" />
<use x="294" y="304" xlink:href="#ver" />
<use x="352" y="310" xlink:href="#hor" />
<use x="358" y="304" xlink:href="#ver" />
<use x="368" y="310" xlink:href="#hor" />
<use x="374" y="304" xlink:href="#ver" />
<use x="384" y="310" xlink:href="#hor" />
<use x="390" y="304" xlink:href="#ver" />
<use x="32" y="326" xlink:href="#hor" />
<use x="38" y="320" xlink:href="#ver" />
<use x="48" y="326" xlink:href="#hor" />
<use x="54" y="320" xlink:href="#ver" />
<use x="64" y="326" xlink:href="#hor" />
<use x="70" y="320" xlink:href="#ver" />
<use x="80" y="326" xlink:href="#hor" />
<use x="86" y="320" xlink:href="#ver" />
<use x="96" y="326" xlink:href="#hor" />
<use x="102" y="320" xlink:href="#ver" />
<use x="112" y="326" xlink:href="#hor" />
<use x="118" y="320" xlink:href="#ver" />
<use x="128" y="326" xlink:href="#hor" />
<use x="134" y="320" xlink:href="#ver" />
<use x="160" y="326" xlink:href="#hor" />
<use x="166" y="320" xlink:href="#ver" />
<use x="176" y="326" xlink:href="#hor" />
<use x="182" y="320" xlink:href="#ver" />
<use x="192" y="326" xlink:href="#hor" />
<use x="198" y="320" xlink:href="#ver" />
<use x="224" y="326" xlink:href="#hor" />
<use x="230" y="320" xlink:href="#ver" />
<use x="240" y="326" xlink:href="#hor" />
<use x="246" y="320" xlink:href="#ver" />
<use x="288" y="326" xlink:href="#hor" />
<use x="294" y="320" xlink:href="#ver" />
<use x="320" y="326" xlink:href="#hor" />
<use x="326" y="320" xlink:href="#ver" />
<use x="352" y="326" xlink:href="#hor" />
<use x="358" y="320" xlink:href="#ver" />
<use x="368" y="326" xlink:href="#hor" />
<use x="374" y="320" xlink:href="#ver" />
<use x="384" y="326" xlink:href="#hor" />
<use x="390" y="320" xlink:href="#ver" />
<use x="400" y="326" xlink:href="#hor" />
<use x="406" y="320" xlink:href="#ver" />
<use x="416" y="326" xlink:href="#hor" />
<use x="422" y="320" xlink:href="#ver" />
<use x="32" y="342" xlink:href="#hor" />
<use x="38" y="336" xlink:href="#ver" />
<use x="128" y="342" xlink:href="#hor" />
<use x="134" y="336" xlink:href="#ver" />
<use x="160" y="342" xlink:href="#hor" />
<use x="166" y="336" xlink:href="#ver" />
<use x="192" y="342" xlink:href="#hor" />
<use x="198" y="336" xlink:href="#ver" />
<use x="224" y="342" xlink:href="#hor" />
<use x="230" y="336" xlink:href="#ver" />
<use x="240" y="342" xlink:href="#hor" />
<use x="246" y="336" xlink:href="#ver" />
<use x="256" y="342" xlink:href="#hor" />
<use x="262" y="336" xlink:href="#ver" />
<use x="272" y="342" xlink:href="#hor" />
<use x="278" y="336" xlink:href="#ver" />
<use x="288" y="342" xlink:href="#hor" />
<use x="294" y="336" xlink:href="#ver" />
<use x="352" y="342" xlink:href="#hor" />
<use x="358" y="336" xlink:href="#ver" />
<use x="368" y="342" xlink:href="#hor" />
<use x="374" y="336" xlink:href="#ver" />
<use x="32" y="358" xlink:href="#hor" />
<use x="38" y="352" xlink:href="#ver" />
<use x="64" y="358" xlink:href="#hor" />
<use x="70" y="352" xlink:href="#ver" />
<use x="80" y="358" xlink:href="#hor" />
<use x="86" y="352" xlink:href="#ver" />
<use x="96" y="358" xlink:href="#hor" />
<use x="102" y="352" xlink:href="#ver" />
<use x="128" y="358" xlink:href="#hor" />
<use x="134" y="352" xlink:href="#ver" />
<use x="160" y="358" xlink:href="#hor" />
<use x="166" y="352" xlink:href="#ver" />
<use x="176" y="358" xlink:href="#hor" />
<use x="182" y="352" xlink:href="#ver" />
<use x="224" y="358" xlink:href="#hor" />
<use x="230" y="352" xlink:href="#ver" />
<use x="240" y="358" xlink:href="#hor" />
<use x="246" y="352" xlink:href="#ver" />
<use x="272" y="358" xlink:href="#hor" />
<use x="278" y="352" xlink:href="#ver" />
<use x="288" y="358" xlink:href="#hor" />
<use x="294" y="352" xlink:href="#ver" />
<use x="304" y="358" xlink:href="#hor" />
<use x="310" y="352" xlink:href="#ver" />
<use x="320" y="358" xlink:href="#hor" />
<use x="326" y="352" xlink:href="#ver" />
<use x="336" y="358" xlink:href="#hor" />
<use x="342" y="352" xlink:href="#ver" />
<use x="352" y="358" xlink:href="#hor" />
<use x="358" y="352" xlink:href="#ver" />
<use x="368" y="358" xlink:href="#hor" />
<use x="374" y="352" xlink:href="#ver" />
<use x="384" y="358" xlink:href="#hor" />
<use x="390" y="352" xlink:href="#ver" />
<use x="416" y="358" xlink:href="#hor" />
<use x="422" y="352" xlink:href="#ver" />
<use x="32" y="374" xlink:href="#hor" />
<use x="38" y="368" xlink:href="#ver" />
<use x="64" y="374" xlink:href="#hor" />
<use x="70" y="368" xlink:href="#ver" />
<use x="80" y="374" xlink:href="#hor" />
<use x="86" y="368" xlink:href="#ver" />
<use x="96" y="374" xlink:href="#hor" />
<use x="102" y="368" xlink:href="#ver" />
<use x="128" y="374" xlink:href="#hor" />
<use x="134" y="368" xlink:href="#ver" />
<use x="160" y="374" xlink:href="#hor" />
<use x="166" y="368" xlink:href="#ver" />
<use x="176" y="374" xlink:href="#hor" />
<use x="182" y="368" xlink:href="#ver" />
<use x="192" y="374" xlink:href="#hor" />
<use x="198" y="368" xlink:href="#ver" />
<use x="208" y="374" xlink:href="#hor" />
<use x="214" y="368" xlink:href="#ver" />
<use x="288" y="374" xlink:href="#hor" />
<use x="294" y="368" xlink:href="#ver" />
<use x="304" y="374" xlink:href="#hor" />
<use x="310" y="368" xlink:href="#ver" />
<use x="320" y="374" xlink:href="#hor" />
<use x="326" y="368" xlink:href="#ver" />
<use x="352" y="374" xlink:href="#hor" />
<use x="358" y="368" xlink:href="#ver" />
<use x="384" y="374" xlink:href="#hor" />
<use x="390" y="368" xlink:href="#ver" />
<use x="400" y="374" xlink:href="#hor" />
<use x="406" y="368" xlink:href="#ver" />
<use x="416" y="374" xlink:href="#hor" />
<use x="422" y="368" xlink:href="#ver" />
<use x="32" y="390" xlink:href="#hor" />
<use x="38" y="384" xlink:href="#ver" />
<use x="64" y="390" xlink:href="#hor" />
<use x="70" y="384" xlink:href="#ver" />
<use x="80" y="390" xlink:href="#hor" />
<use x="86" y="384" xlink:href="#ver" />
<use x="96" y="390" xlink:href="#hor" />
<use x="102" y="384" xlink:href="#ver" />
<use x="128" y="390" xlink:href="#hor" />
<use x="134" y="384" xlink:href="#ver" />
<use x="160" y="390" xlink:href="#hor" />
<use x="166" y="384" xlink:href="#ver" />
<use x="272" y="390" xlink:href="#hor" />
<use x="278" y="384" xlink:href="#ver" />
<use x="288" y="390" xlink:href="#hor" />
<use x="294" y="384" xlink:href="#ver" />
<use x="336" y="390" xlink:href="#hor" />
<use x="342" y="384" xlink:href="#ver" />
<use x="384" y="390" xlink:href="#hor" />
<use x="390" y="384" xlink:href="#ver" />
<use x="416" y="390" xlink:href="#hor" />
<use x="422" y="384" xlink:href="#ver" />
<use x="32" y="406" xlink:href="#hor" />
<use x="38" y="400" xlink:href="#ver" />
<use x="128" y="406" xlink:href="#hor" />
<use x="134" y="400" xlink:href="#ver" />
<use x="160" y="406" xlink:href="#hor" />
<use x="166" y="400" xlink:href="#ver" />
<use x="192" y="406" xlink:href="#hor" />
<use x="198" y="400" xlink:href="#ver" />
<use x="256" y="406" xlink:href="#hor" />
<use x="262" y="400" xlink:href="#ver" />
<use x="272" y="406" xlink:href="#hor" />
<use x="278" y="400" xlink:href="#ver" />
<use x="288" y="406" xlink:href="#hor" />
<use x="294" y="400" xlink:href="#ver" />
<use x="304" y="406" xlink:href="#hor" />
<use x="310" y="400" xlink:href="#ver" />
<use x="336" y="406" xlink:href="#hor" />
<use x="342" y="400" xlink:href="#ver" />
<use x="352" y="406" xlink:href="#hor" />
<use x="358" y="400" xlink:href="#ver" />
<use x="368" y="406" xlink:href="#hor" />
<use x="374" y="400" xlink:href="#ver" />
<use x="416" y="406" xlink:href="#hor" />
<use x="422" y="400" xlink:href="#ver" />
<use x="32" y="422" xlink:href="#hor" />
<use x="38" y="416" xlink:href="#ver" />
<use x="48" y="422" xlink:href="#hor" />
<use x="54" y="416" xlink:href="#ver" />
<use x="64" y="422" xlink:href="#hor" />
<use x="70" y="416" xlink:href="#ver" />
<use x="80" y="422" xlink:href="#hor" />
<use x="86" y="416" xlink:href="#ver" />
<use x="96" y="422" xlink:href="#hor" />
<use x="102" y="416" xlink:href="#ver" />
<use x="112" y="422" xlink:href="#hor" />
<use x="118" y="416" xlink:href="#ver" />
<use x="128" y="422" xlink:href="#hor" />
<use x="134" y="416" xlink:href="#ver" />
<use x="192" y="422" xlink:href="#hor" />
<use x="198" y="416" xlink:href="#ver" />
<use x="208" y="422" xlink:href="#hor" />
<use x="214" y="416" xlink:href="#ver" />
<use x="224" y="422" xlink:href="#hor" />
<use x="230" y="416" xlink:href="#ver" />
<use x="240" y="422" xlink:href="#hor" />
<use x="246" y="416" xlink:href="#ver" />
<use x="304" y="422" xlink:href="#hor" />
<use x="310" y="416" xlink:href="#ver" />
<use x="336" y="422" xlink:href="#hor" />
<use x="342" y="416" xlink:href="#ver" />
<use x="352" y="422" xlink:href="#hor" />
<use x="358" y="416" xlink:href="#ver" />
<use x="368" y="422" xlink:href="#hor" />
<use x="374" y="416" xlink:href="#ver" />
<use x="384" y="422" xlink:href="#hor" />
<use x="390" y="416" xlink:href="#ver" />
<use x="400" y="422" xlink:href="#hor" />
<use x="406" y="416" xlink:href="#ver" />
<use x="416" y="422" xlink:href="#hor" />
<use x="422" y="416" xlink:href="#ver" />
</g>
</svg>